<svg xmlns="http://www.w3.org/2000/svg" xmlns:xlink="http://www.w3.org/1999/xlink" width="329" zoomAndPan="magnify"
    viewBox="0 0 246.75 153.750002" height="205" preserveAspectRatio="xMidYMid meet" version="1.0">
    <defs>
        <g />
        <clipPath id="cb52dc6bfc">
            <path
                d="M 143.074219 51.816406 L 155.609375 51.816406 L 155.609375 64.351562 L 143.074219 64.351562 Z M 143.074219 51.816406 "
                clip-rule="nonzero" />
        </clipPath>
        <clipPath id="a5134b9722">
            <path
                d="M 149.339844 51.816406 C 145.878906 51.816406 143.074219 54.621094 143.074219 58.085938 C 143.074219 61.546875 145.878906 64.351562 149.339844 64.351562 C 152.800781 64.351562 155.609375 61.546875 155.609375 58.085938 C 155.609375 54.621094 152.800781 51.816406 149.339844 51.816406 Z M 149.339844 51.816406 "
                clip-rule="nonzero" />
        </clipPath>
        <clipPath id="6a6491e8bc">
            <path
                d="M 139.289062 41.765625 L 155.609375 41.765625 L 155.609375 58.085938 L 139.289062 58.085938 Z M 139.289062 41.765625 "
                clip-rule="nonzero" />
        </clipPath>
        <clipPath id="e18b83a930">
            <path
                d="M 147.449219 41.765625 C 142.941406 41.765625 139.289062 45.417969 139.289062 49.925781 C 139.289062 54.429688 142.941406 58.085938 147.449219 58.085938 C 151.953125 58.085938 155.609375 54.429688 155.609375 49.925781 C 155.609375 45.417969 151.953125 41.765625 147.449219 41.765625 Z M 147.449219 41.765625 "
                clip-rule="nonzero" />
        </clipPath>
    </defs>
    <g fill="#ff66c4" fill-opacity="1">
        <g transform="translate(28.759846, 97.061663)">
            <g>
                <path
                    d="M 44.5625 -0.40625 C 43.445312 -0.820312 42.632812 -1.535156 42.125 -2.546875 C 41.613281 -3.566406 41.28125 -4.6875 41.125 -5.90625 C 40.96875 -7.132812 40.863281 -8.226562 40.8125 -9.1875 C 40.59375 -12.164062 40.492188 -15.144531 40.515625 -18.125 C 40.546875 -21.101562 40.347656 -24.085938 39.921875 -27.078125 C 38.910156 -26.066406 37.753906 -24.84375 36.453125 -23.40625 C 35.148438 -21.96875 33.738281 -20.703125 32.21875 -19.609375 C 30.707031 -18.515625 29.148438 -18.019531 27.546875 -18.125 C 26.273438 -18.226562 25.144531 -18.707031 24.15625 -19.5625 C 23.175781 -20.414062 22.269531 -21.476562 21.4375 -22.75 C 20.613281 -24.03125 19.878906 -25.320312 19.234375 -26.625 C 18.597656 -27.9375 17.988281 -29.046875 17.40625 -29.953125 C 16.5 -27.921875 15.953125 -25.734375 15.765625 -23.390625 C 15.585938 -21.054688 15.46875 -18.691406 15.40625 -16.296875 C 15.351562 -13.898438 15.113281 -11.554688 14.6875 -9.265625 C 14.269531 -6.972656 13.34375 -4.867188 11.90625 -2.953125 C 10.625 -1.253906 9.128906 -0.40625 7.421875 -0.40625 C 5.722656 -0.40625 4.257812 -1.28125 3.03125 -3.03125 C 2.125 -4.414062 1.578125 -5.929688 1.390625 -7.578125 C 1.210938 -9.234375 1.210938 -10.925781 1.390625 -12.65625 C 1.578125 -14.382812 1.753906 -15.992188 1.921875 -17.484375 C 2.234375 -20.679688 2.613281 -23.875 3.0625 -27.0625 C 3.519531 -30.257812 3.988281 -33.429688 4.46875 -36.578125 C 4.738281 -38.441406 5.03125 -40.4375 5.34375 -42.5625 C 5.664062 -44.695312 6.441406 -46.535156 7.671875 -48.078125 C 9.054688 -49.773438 10.519531 -50.742188 12.0625 -50.984375 C 13.601562 -51.222656 15.160156 -50.957031 16.734375 -50.1875 C 18.304688 -49.414062 19.796875 -48.363281 21.203125 -47.03125 C 22.609375 -45.707031 23.894531 -44.3125 25.0625 -42.84375 C 26.238281 -41.375 27.203125 -40.082031 27.953125 -38.96875 C 28.640625 -40.082031 29.515625 -41.398438 30.578125 -42.921875 C 31.648438 -44.441406 32.835938 -45.921875 34.140625 -47.359375 C 35.441406 -48.796875 36.820312 -49.992188 38.28125 -50.953125 C 39.75 -51.910156 41.269531 -52.398438 42.84375 -52.421875 C 44.414062 -52.453125 46 -51.773438 47.59375 -50.390625 C 48.601562 -49.535156 49.332031 -48.484375 49.78125 -47.234375 C 50.238281 -45.984375 50.570312 -44.691406 50.78125 -43.359375 C 51 -42.023438 51.210938 -40.75 51.421875 -39.53125 C 51.960938 -36.601562 52.414062 -33.660156 52.78125 -30.703125 C 53.15625 -27.753906 53.394531 -24.785156 53.5 -21.796875 C 53.550781 -21.054688 53.59375 -19.941406 53.625 -18.453125 C 53.65625 -16.960938 53.613281 -15.3125 53.5 -13.5 C 53.394531 -11.6875 53.179688 -9.890625 52.859375 -8.109375 C 52.546875 -6.328125 52.054688 -4.742188 51.390625 -3.359375 C 50.722656 -1.972656 49.84375 -0.984375 48.75 -0.390625 C 47.65625 0.191406 46.257812 0.1875 44.5625 -0.40625 Z M 44.5625 -0.40625 " />
            </g>
        </g>
    </g>
    <g fill="#ff66c4" fill-opacity="1">
        <g transform="translate(83.625298, 97.061663)">
            <g>
                <path
                    d="M 22.515625 -2.875 C 19.859375 -0.851562 17.144531 0.101562 14.375 0 C 11.601562 -0.101562 9.140625 -1.070312 6.984375 -2.90625 C 4.828125 -4.75 3.269531 -7.160156 2.3125 -10.140625 C 1.519531 -12.910156 1.148438 -15.851562 1.203125 -18.96875 C 1.253906 -22.082031 1.851562 -25.0625 3 -27.90625 C 4.144531 -30.757812 5.859375 -33.144531 8.140625 -35.0625 C 9.691406 -36.332031 11.53125 -37.21875 13.65625 -37.71875 C 15.78125 -38.226562 17.878906 -38.3125 19.953125 -37.96875 C 22.035156 -37.625 23.796875 -36.785156 25.234375 -35.453125 C 26.671875 -34.128906 27.441406 -32.210938 27.546875 -29.703125 C 28.398438 -27.578125 28.972656 -25.273438 29.265625 -22.796875 C 29.554688 -20.328125 29.53125 -17.851562 29.1875 -15.375 C 28.84375 -12.894531 28.125 -10.5625 27.03125 -8.375 C 25.9375 -6.195312 24.429688 -4.363281 22.515625 -2.875 Z M 19.484375 -13.65625 C 20.066406 -13.8125 20.503906 -14.328125 20.796875 -15.203125 C 21.097656 -16.085938 21.300781 -17.101562 21.40625 -18.25 C 21.507812 -19.394531 21.546875 -20.472656 21.515625 -21.484375 C 21.492188 -22.492188 21.457031 -23.160156 21.40625 -23.484375 C 20.925781 -23.109375 20.472656 -22.65625 20.046875 -22.125 C 19.617188 -21.59375 19.269531 -21.0625 19 -20.53125 C 17.988281 -18.445312 17.441406 -16.6875 17.359375 -15.25 C 17.285156 -13.8125 17.992188 -13.28125 19.484375 -13.65625 Z M 19.484375 -13.65625 " />
            </g>
        </g>
    </g>
    <g fill="#ff66c4" fill-opacity="1">
        <g transform="translate(114.29245, 97.061663)">
            <g>
                <path
                    d="M 12.78125 -0.3125 C 11.34375 -0.789062 10.171875 -1.679688 9.265625 -2.984375 C 8.359375 -4.296875 7.648438 -5.722656 7.140625 -7.265625 C 6.640625 -8.804688 6.175781 -10.242188 5.75 -11.578125 C 5.425781 -12.691406 4.929688 -14.300781 4.265625 -16.40625 C 3.609375 -18.507812 2.984375 -20.828125 2.390625 -23.359375 C 1.804688 -25.890625 1.421875 -28.363281 1.234375 -30.78125 C 1.046875 -33.207031 1.234375 -35.320312 1.796875 -37.125 C 2.359375 -38.9375 3.460938 -40.164062 5.109375 -40.8125 C 6.648438 -41.394531 8.019531 -41.148438 9.21875 -40.078125 C 10.414062 -39.015625 11.453125 -37.5 12.328125 -35.53125 C 13.210938 -33.5625 13.960938 -31.445312 14.578125 -29.1875 C 15.191406 -26.925781 15.695312 -24.835938 16.09375 -22.921875 C 16.488281 -21.003906 16.796875 -19.617188 17.015625 -18.765625 C 17.066406 -19.085938 17.15625 -19.875 17.28125 -21.125 C 17.414062 -22.375 17.644531 -23.847656 17.96875 -25.546875 C 18.289062 -27.253906 18.675781 -28.972656 19.125 -30.703125 C 19.582031 -32.429688 20.140625 -33.921875 20.796875 -35.171875 C 21.460938 -36.429688 22.25 -37.21875 23.15625 -37.53125 C 24.0625 -37.851562 25.070312 -37.484375 26.1875 -36.421875 C 26.882812 -35.773438 27.285156 -34.835938 27.390625 -33.609375 C 27.492188 -32.390625 27.4375 -31.070312 27.21875 -29.65625 C 27.007812 -28.25 26.742188 -26.921875 26.421875 -25.671875 C 26.109375 -24.421875 25.875 -23.394531 25.71875 -22.59375 C 25.132812 -19.988281 24.453125 -17.351562 23.671875 -14.6875 C 22.898438 -12.03125 22.035156 -9.425781 21.078125 -6.875 C 20.648438 -5.695312 20.078125 -4.507812 19.359375 -3.3125 C 18.640625 -2.113281 17.75 -1.191406 16.6875 -0.546875 C 15.625 0.0859375 14.320312 0.164062 12.78125 -0.3125 Z M 12.78125 -0.3125 " />
            </g>
        </g>
    </g>
    <g fill="#ff66c4" fill-opacity="1">
        <g transform="translate(142.963039, 97.061663)">
            <g>
                <path
                    d=" M 7.828125 -0.875 C 6.597656 -0.0195312 5.582031 0.242188 4.78125 -0.078125 C 3.988281 -0.398438 3.363281 -1.066406 2.90625 -2.078125 C 2.457031 -3.085938 2.113281 -4.226562 1.875 -5.5 C 1.632812 -6.78125 1.488281 -7.992188 1.4375 -9.140625 C 1.382812 -10.285156 1.332031 -11.125 1.28125 -11.65625 C 1.226562 -13.46875 1.238281 -15.289062 1.3125 -17.125 C 1.394531 -18.96875 1.488281 -20.789062 1.59375 -22.59375 C 1.644531 -23.550781 1.671875 -24.628906 1.671875 -25.828125 C 1.671875 -27.023438 1.789062 -28.171875 2.03125 -29.265625 C 2.269531 -30.359375 2.765625 -31.25 3.515625 -31.9375 C 4.734375 -33.164062 5.769531 -33.710938 6.625 -33.578125 C 7.476562 -33.441406 8.171875 -32.894531 8.703125 -31.9375 C 9.234375 -30.976562 9.644531 -29.847656 9.9375 -28.546875 C 10.226562 -27.242188 10.441406 -25.96875 10.578125 -24.71875 C 10.710938 -23.46875 10.804688 -22.519531 10.859375 -21.875 C 11.128906 -19.695312 11.179688 -17.53125 11.015625 -15.375 C 10.859375 -13.21875 10.617188 -11.046875 10.296875 -8.859375 C 10.191406 -8.117188 10.085938 -7.210938 9.984375 -6.140625 C 9.878906 -5.078125 9.675781 -4.066406 9.375 -3.109375 C 9.082031 -2.148438 8.566406 -1.40625 7.828125 -0.875 Z M 7.828125 -0.875 " />
            </g>
        </g>
    </g>
    <g fill="#ff66c4" fill-opacity="1">
        <g transform="translate(155.26185, 97.061663)">
            <g>
                <path
                    d="M 10.703125 -3.59375 C 8.203125 -4.019531 6.21875 -5.003906 4.75 -6.546875 C 3.289062 -8.085938 2.289062 -9.945312 1.75 -12.125 C 1.21875 -14.3125 1.070312 -16.601562 1.3125 -19 C 1.550781 -21.394531 2.125 -23.671875 3.03125 -25.828125 C 3.9375 -27.984375 5.082031 -29.8125 6.46875 -31.3125 C 8.226562 -33.164062 10.453125 -34.546875 13.140625 -35.453125 C 15.828125 -36.359375 18.445312 -36.441406 21 -35.703125 C 22.332031 -35.328125 23.554688 -34.644531 24.671875 -33.65625 C 25.796875 -32.675781 26.675781 -31.546875 27.3125 -30.265625 C 27.945312 -28.984375 28.210938 -27.664062 28.109375 -26.3125 C 28.003906 -24.957031 27.421875 -23.664062 26.359375 -22.4375 C 25.347656 -21.320312 24.09375 -20.5 22.59375 -19.96875 C 21.101562 -19.4375 19.640625 -19.035156 18.203125 -18.765625 C 17.242188 -18.609375 16.257812 -18.503906 15.25 -18.453125 C 14.238281 -18.398438 13.375 -18.144531 12.65625 -17.6875 C 11.9375 -17.238281 11.523438 -16.320312 11.421875 -14.9375 C 11.316406 -13.5 11.539062 -12.617188 12.09375 -12.296875 C 12.65625 -11.972656 13.375 -12.007812 14.25 -12.40625 C 15.132812 -12.8125 16.054688 -13.359375 17.015625 -14.046875 C 17.972656 -14.742188 18.847656 -15.410156 19.640625 -16.046875 C 20.441406 -16.691406 21.003906 -17.09375 21.328125 -17.25 C 23.023438 -18 24.242188 -18.050781 24.984375 -17.40625 C 25.734375 -16.769531 26.132812 -15.796875 26.1875 -14.484375 C 26.25 -13.179688 26.050781 -11.863281 25.59375 -10.53125 C 25.144531 -9.207031 24.570312 -8.195312 23.875 -7.5 C 22.226562 -5.851562 20.191406 -4.695312 17.765625 -4.03125 C 15.347656 -3.363281 12.992188 -3.21875 10.703125 -3.59375 Z M 15.96875 -23.796875 C 16.5 -23.640625 17.191406 -23.65625 18.046875 -23.84375 C 18.898438 -24.03125 19.617188 -24.347656 20.203125 -24.796875 C 20.785156 -25.242188 20.945312 -25.738281 20.6875 -26.28125 C 19.675781 -26.4375 18.742188 -26.300781 17.890625 -25.875 C 17.035156 -25.445312 16.394531 -24.753906 15.96875 -23.796875 Z M 15.96875 -23.796875 " />
            </g>
        </g>
    </g>
    <g fill="#ff66c4" fill-opacity="1">
        <g transform="translate(184.571343, 97.061663)">
            <g>
                <path
                    d="M 11.65625 3.828125 C 10.164062 4.359375 8.515625 4.691406 6.703125 4.828125 C 4.898438 4.960938 3.359375 4.445312 2.078125 3.28125 C 0.796875 2.101562 0.113281 0.878906 0.03125 -0.390625 C -0.0390625 -1.671875 0.425781 -2.953125 1.4375 -4.234375 C 2.238281 -5.242188 3.222656 -6.066406 4.390625 -6.703125 C 5.566406 -7.347656 6.753906 -7.972656 7.953125 -8.578125 C 9.148438 -9.191406 10.253906 -9.882812 11.265625 -10.65625 C 12.273438 -11.425781 13.019531 -12.453125 13.5 -13.734375 C 13.976562 -14.910156 14.039062 -15.894531 13.6875 -16.6875 C 13.34375 -17.488281 12.820312 -18.207031 12.125 -18.84375 C 11.4375 -19.488281 10.75 -20.15625 10.0625 -20.84375 C 8.894531 -22.125 8.054688 -23.5625 7.546875 -25.15625 C 7.035156 -26.75 6.992188 -28.425781 7.421875 -30.1875 C 8.066406 -33.007812 9.476562 -35.191406 11.65625 -36.734375 C 13.84375 -38.273438 16.210938 -39.445312 18.765625 -40.25 C 19.671875 -40.507812 20.734375 -40.757812 21.953125 -41 C 23.179688 -41.238281 24.394531 -41.332031 25.59375 -41.28125 C 26.789062 -41.226562 27.878906 -40.945312 28.859375 -40.4375 C 29.847656 -39.9375 30.554688 -39.078125 30.984375 -37.859375 C 31.566406 -36.253906 31.539062 -34.945312 30.90625 -33.9375 C 30.269531 -32.925781 29.285156 -32.070312 27.953125 -31.375 C 26.617188 -30.6875 25.21875 -30.023438 23.75 -29.390625 C 22.289062 -28.753906 21.03125 -28.019531 19.96875 -27.1875 C 18.90625 -26.363281 18.316406 -25.3125 18.203125 -24.03125 C 18.148438 -22.96875 18.46875 -22.023438 19.15625 -21.203125 C 19.851562 -20.378906 20.65625 -19.617188 21.5625 -18.921875 C 22.46875 -18.234375 23.160156 -17.488281 23.640625 -16.6875 C 24.378906 -15.414062 24.773438 -14.070312 24.828125 -12.65625 C 24.890625 -11.25 24.707031 -9.851562 24.28125 -8.46875 C 23.375 -5.539062 21.75 -3.023438 19.40625 -0.921875 C 17.0625 1.179688 14.476562 2.765625 11.65625 3.828125 Z M 11.65625 3.828125 " />
            </g>
        </g>
    </g>

    <g clip-path="url(#6a6491e8bc)">
        <g clip-path="url(#e18b83a930)">
            <path fill="#63b4f3"
                d="M 139.289062 41.765625 L 155.609375 41.765625 L 155.609375 58.085938 L 139.289062 58.085938 Z M 139.289062 41.765625 "
                fill-opacity="1" fill-rule="nonzero" />
        </g>
    </g>
</svg>